<?xml version="1.0" standalone="no"?>
<!DOCTYPE svg PUBLIC "-//W3C//DTD SVG 20010904//EN"
 "http://www.w3.org/TR/2001/REC-SVG-20010904/DTD/svg10.dtd">
<svg version="1.0" xmlns="http://www.w3.org/2000/svg"
 width="512.000000pt" height="512.000000pt" viewBox="0 0 512.000000 512.000000"
 preserveAspectRatio="xMidYMid meet">
<metadata>
Created by potrace 1.14, written by Peter Selinger 2001-2017
</metadata>
<g transform="translate(0.000000,512.000000) scale(0.100000,-0.100000)"
fill="#000000" stroke="none">
<path d="M0 2560 l0 -2560 2560 0 2560 0 0 2560 0 2560 -2560 0 -2560 0 0
-2560z m4560 1860 l0 -240 -2000 0 -2000 0 0 240 0 240 2000 0 2000 0 0 -240z
m-2458 -1450 c32 -9 64 -45 253 -281 119 -149 220 -267 225 -263 4 5 103 129
219 276 l211 267 57 7 c62 7 182 -1 195 -14 5 -5 6 -17 2 -27 -4 -10 -124
-160 -266 -333 -142 -174 -257 -320 -256 -324 2 -4 77 -98 168 -210 328 -402
380 -469 380 -483 0 -7 -10 -17 -22 -21 -34 -11 -224 -7 -247 5 -10 6 -119
139 -241 296 l-221 285 -223 -283 c-123 -155 -230 -288 -239 -295 -10 -8 -50
-13 -119 -14 -113 -1 -148 6 -148 27 0 10 392 495 547 676 12 15 -15 51 -236
322 -137 168 -260 319 -272 336 -35 48 -15 58 116 60 44 0 96 -4 117 -9z"/>
</g>
</svg>
