<svg xmlns="http://www.w3.org/2000/svg" width="24" height="24"><path d="M24 13.62v-3.24c-1.65-.58-2.7-.75-3.22-2.02-.53-1.27.1-2.13.85-3.7l-2.29-2.29c-1.56.74-2.43 1.38-3.7.85-1.27-.53-1.44-1.58-2.02-3.22h-3.24c-.58 1.64-.75 2.7-2.02 3.22-1.27.53-2.13-.1-3.7-.85L2.37 4.66c.75 1.57 1.38 2.43.85 3.7C2.69 9.64 1.64 9.8 0 10.38v3.24c1.63.58 2.7.75 3.22 2.02.53 1.28-.11 2.16-.85 3.7l2.29 2.29c1.56-.74 2.43-1.38 3.7-.85 1.28.53 1.44 1.58 2.02 3.22h3.24c.58-1.64.75-2.69 2.02-3.22 1.27-.53 2.12.1 3.7.85l2.29-2.29c-.75-1.56-1.38-2.43-.85-3.7.53-1.27 1.59-1.44 3.22-2.02zM12 16a4 4 0 1 1 0-8 4 4 0 0 1 0 8z"/></svg>